<?xml version="1.0"?><svg version="1.2" baseProfile="tiny-ps" viewBox="0 0 300 300" xmlns="http://www.w3.org/2000/svg" xmlns:xlink="http://www.w3.org/1999/xlink"><title>Spring Branch ISD</title><g><g fill="#fffffe" transform="matrix(.1 0 0 -.1 0 300)"><path d="M1124 2975c-501-133-891-500-1054-994l-38-116-16-94-16-95v-331l15-88c56-317 199-589 431-820l89-87 90-65c178-127 379-213 598-257l112-22h340l90 17c50 10 135 32 190 48l100 31 101 48c55 27 142 76 193 110l93 63 95 91c93 89 193 207 247 294 84 135 163 331 197 487l19 90v456l-16 77c-65 318-255 640-500 844-190 158-392 262-616 317l-87 21h-283l-283-1-91-24z"/></g><g fill="#fff0c1" transform="matrix(.1 0 0 -.1 0 300)"><path d="M1124 2975c-102-27-213-69-307-116l-62-32 20-7c11-5 208-80 438-169 230-88 424-162 431-163l14-3 176 217c97 119 176 222 176 227v10l-67 19c-38 11-89 25-115 31l-47 11h-283l-283-1-91-24zm766-316c-107-133-200-249-206-258l-12-16 89-330c48-181 87-330 86-331-1 0-279 226-617 502-337 277-616 504-620 504-3-1-17-11-32-23l-27-22 295-460c162-253 301-465 309-470l13-11 334-18c183-10 334-19 336-21 1-1-342-222-763-490S311 726 313 724c3-3 1012 255 1226 313l64 18 126 319 125 318 8-18c4-11 94-346 200-746l192-727 38 22c22 12 44 27 49 33l10 12 24 448c13 247 26 472 28 500l3 51-263 214-263 214 40 3c21 2 212-6 422-17 211-11 446-23 522-27l139-7-6 74c-3 41-11 97-18 125l-12 51-255 97-254 98-17-5c-9-2-139-84-289-182-150-97-275-176-277-173-2 2 88 244 201 538l206 534-19 14c-28 21-151 82-165 82h-13l-195-241zm-1456-82c-177-181-286-360-364-596l-39-116-16-102-17-103 5-192 5-193 14-60 13-60 110-3 110-3 100 11c55 6 137 18 183 27l83 16 230 284 230 284-277 427c-152 235-282 433-288 439l-12 13-70-73zm2093-62c-4-61-10-166-13-235l-7-126 214-81c117-45 214-81 215-80 2 1-15 44-36 96-69 167-173 327-302 466l-65 69-6-109zm191-1204c-136-36-249-69-252-72s-15-176-26-385c-10-208-22-416-26-461l-6-83h10c6 0 56 44 112 97l102 97 63 80c76 99 104 143 159 254 80 160 145 381 146 495v47l-17-1c-10 0-129-31-265-68zM918 827c-350-95-640-175-644-179l-7-7 55-68c231-286 542-473 901-545l112-22h340l90 18c107 20 205 48 298 84l67 26v11c-1 5-124 199-274 430l-273 420-14 2c-8 1-301-75-651-170z"/></g><g fill="#ffdf7c" transform="matrix(.1 0 0 -.1 0 300)"><path d="M1124 2975c-126-33-354-127-354-145 0-5 824-325 869-337l18-5 177 218c97 120 176 222 176 226 0 7-89 35-182 57l-47 11h-283l-283-1-91-24zm864-202c-57-69-149-183-205-252-57-69-103-132-103-139s39-157 86-333c47-177 84-323 82-325s-282 224-621 502l-617 505-29-22-28-21 299-466c165-257 301-468 302-470 2-1 158-11 347-22l344-21 10-13c6-8 98-345 205-750l195-736h10c6 0 26 11 46 24l36 25 6 103c4 57 16 283 28 502l22 400-30 25c-16 14-136 113-267 219-131 107-236 195-234 197s251-10 553-26c303-16 556-29 564-29h14l-6 73c-3 39-11 95-18 122l-11 50-251 95c-137 52-255 96-262 98l-12 3-287-187c-158-102-288-185-290-183s91 247 205 544l209 540-18 13c-23 19-149 82-162 82-5 0-56-57-112-127zM434 2577c-177-181-286-360-364-596l-39-116-16-102-17-103 5-192 5-193 14-60 13-60 150 1 150 2 114 17c63 9 129 22 147 28l32 12 221 274c122 150 221 277 221 283 0 8-540 849-559 870l-7 8-70-73zm2088-189-11-223 7-7c12-12 404-159 409-154 9 9-57 162-109 253-28 48-74 119-103 157-58 79-163 196-174 196h-7l-12-222zM1082 1218C668 954 331 735 334 733c3-4 1255 316 1264 323 4 2 236 590 247 623l6 21-8-1c-4 0-347-217-761-481zm1636 93c-136-36-249-69-252-72s-15-176-26-385c-10-208-22-416-26-461l-6-83h10c6 0 56 44 112 97l102 97 63 80c76 99 104 143 159 254 80 160 145 381 146 495v47l-17-1c-10 0-129-31-265-68zM918 827c-350-95-640-175-644-179l-7-7 55-68c231-286 542-473 901-545l112-22h340l90 18c107 20 205 48 298 84l67 26v11c-1 5-124 199-274 430l-273 420-14 2c-8 1-301-75-651-170z"/></g><g fill="#ffce34" transform="matrix(.1 0 0 -.1 0 300)"><path d="M1124 2975c-103-27-164-50-277-102l-78-36 8-8c4-4 204-82 443-174l434-166 11 13c5 8 85 107 178 220 92 114 167 209 167 212 0 5-101 36-182 55l-47 11h-283l-283-1-91-24zm762-331-207-256 87-329 88-329 7 7c7 7 408 1045 412 1067 2 9-150 95-169 96-5 0-104-115-218-256zm-1304 65c-13-10-22-22-20-27 11-28 593-925 602-928 10-3 680-43 682-40 2 1-1184 972-1219 998l-22 16-23-19zm-148-132c-177-181-286-361-364-596l-38-116-16-94-16-95v-331l16-90c8-49 20-94 25-100l9-9 178 12c173 11 351 36 383 53 23 12 454 548 453 563-1 9-518 817-558 873-1 1-34-30-72-70zm2103-7c-5-34-15-234-22-403 0-9 407-169 413-162 8 8-60 165-110 252-60 105-134 205-215 293l-60 65-6-45zm-379-667c-158-103-286-188-285-190 1-1 232-13 512-27 281-14 534-28 563-30l52-5v47c0 45-25 180-34 190-4 3-521 204-521 202 0 0-129-85-287-187zm-1070-686C672 952 332 734 333 733s218 54 482 123c264 68 548 141 630 162l150 38 108 269c115 290 148 375 144 375-1 0-343-218-759-483zm808 355c19-70 107-401 196-737 88-335 165-614 169-619l8-9 35 23 36 22 4 21c3 12 14 211 26 442 11 231 23 449 26 485l6 65-253 205c-139 113-261 211-270 217l-17 13 34-128zm822-261c-136-36-249-69-252-72s-15-176-26-385c-10-208-22-416-26-461l-6-83h10c6 0 56 44 112 97l102 97 63 80c76 99 104 143 159 254 80 160 145 381 146 495v47l-17-1c-10 0-129-31-265-68zM918 827c-350-95-640-175-644-179l-7-7 55-68c231-286 542-473 901-545l112-22h340l90 18c107 20 205 48 298 84l67 26v11c-1 5-124 199-274 430l-273 420-14 2c-8 1-301-75-651-170z"/></g><g fill="#91b9d1" transform="matrix(.1 0 0 -.1 0 300)"><path d="M2718 1311c-136-36-249-69-252-72s-15-176-26-385c-10-208-22-416-26-461l-6-83h10c6 0 56 44 112 97l102 97 63 80c76 99 104 143 159 254 80 160 145 381 146 495v47l-17-1c-10 0-129-31-265-68zM918 827c-350-95-640-175-644-179l-7-7 55-68c231-286 542-473 901-545l112-22h340l90 18c107 20 205 48 298 84l67 26v11c-1 5-124 199-274 430l-273 420-14 2c-8 1-301-75-651-170z"/></g><g fill="#11689b" transform="matrix(.1 0 0 -.1 0 300)"><path d="m2724 1308-260-70-24-459c-12-253-21-462-18-464 3-3 51 38 108 92l102 97 63 80c76 99 104 143 159 254 80 160 145 381 146 495v47l-7-1c-5 0-125-32-269-71zM1200 899c-201-55-491-134-645-175-154-42-282-78-284-80-7-7 105-138 186-217C662 226 929 87 1223 28l112-22h340l90 18c107 21 206 49 295 83 36 14 67 27 69 29 5 4-552 864-559 863-3-1-169-46-370-100z"/></g></g></svg>